<svg width="18" height="16" viewBox="0 0 18 16" fill="none" xmlns="http://www.w3.org/2000/svg">
<path d="M14.6868 6.16981C14.6868 3.52106 16.928 2.23065 16.9959 2.16273C15.7055 0.32898 13.7359 0.12523 13.0568 0.0573138C11.4268 -0.146436 9.79677 1.00815 8.91386 1.00815C8.03094 1.00815 6.74052 0.0573138 5.31427 0.0573138C3.48052 0.0573138 1.78261 1.07606 0.899688 2.70606C-1.00198 5.96606 0.424272 10.7202 2.25802 13.3011C3.20885 14.5915 4.2276 16.0177 5.65385 15.9498C7.01219 15.8819 7.55552 15.0669 9.18552 15.0669C10.8155 15.0669 11.2909 15.9498 12.7172 15.8819C14.2114 15.8819 15.0943 14.5915 15.9772 13.3011C17.0639 11.8069 17.4714 10.3806 17.4714 10.3127C17.5393 10.3806 14.6868 9.3619 14.6868 6.16981Z" fill="white"/>
</svg>
