<svg width="19" height="16" viewBox="0 0 19 16" fill="none" xmlns="http://www.w3.org/2000/svg">
<path d="M15.4866 6.2101C15.4866 3.56135 17.7279 2.27093 17.7958 2.20301C16.5054 0.369263 14.5358 0.165514 13.8566 0.097597C12.2266 -0.106153 10.5966 1.04843 9.71372 1.04843C8.8308 1.04843 7.54039 0.097597 6.11414 0.097597C4.28039 0.097597 2.58247 1.11635 1.69955 2.74635C-0.202113 6.00635 1.22414 10.7605 3.05789 13.3413C4.00872 14.6318 5.02747 16.058 6.45372 15.9901C7.81205 15.9222 8.35539 15.1072 9.98539 15.1072C11.6154 15.1072 12.0908 15.9901 13.5171 15.9222C15.0112 15.9222 15.8941 14.6318 16.7771 13.3413C17.8637 11.8472 18.2712 10.4209 18.2712 10.353C18.3391 10.4209 15.4866 9.40218 15.4866 6.2101Z" fill="#3E4265"/>
</svg>
