<svg width="125" height="25" viewBox="0 0 125 25" fill="none" xmlns="http://www.w3.org/2000/svg">
<path d="M19.1992 10.8061C18.8332 11.1721 18.5587 11.5381 18.3757 11.9956C18.1927 12.453 18.1927 12.9105 18.1927 13.4595C18.2842 14.0084 18.1927 14.6489 18.0097 15.1978C17.8268 15.7468 17.4608 16.2043 17.0948 16.6617C16.7288 17.0277 16.1799 17.3937 15.6309 17.5767C15.082 17.7597 14.533 17.8511 13.8925 17.7597C13.1606 17.6682 12.5201 17.8511 11.8797 18.2171C11.2392 18.5831 10.7818 19.0406 10.5073 19.681C10.2378 20.3154 10.143 21.0104 10.2328 21.6939C10.3243 22.3343 10.6903 22.9748 11.1477 23.5237C11.6052 23.9812 12.2457 24.3472 12.9776 24.4387C13.661 24.5285 14.356 24.4337 14.9905 24.1642C15.6309 23.8897 16.1799 23.4323 16.4544 22.7918C16.7288 22.1513 16.9118 21.5109 16.9118 20.7789C16.8203 20.23 16.9118 19.5895 17.0948 19.0406C17.2778 18.4916 17.6438 18.0341 18.0097 17.5767C18.3757 17.2107 18.9247 16.8447 19.4736 16.6617C20.0226 16.4787 20.5716 16.3873 21.212 16.4787C21.761 16.5702 22.3099 16.4787 22.8589 16.2043C23.4079 16.0213 23.8653 15.6553 24.1398 15.1978C24.5058 14.7404 24.6888 14.1914 24.7803 13.6424C24.8718 13.0935 24.7803 12.5445 24.5973 11.9956C24.4143 11.4466 24.0483 10.9891 23.6823 10.6232C23.2249 10.2572 22.7674 9.9827 22.2184 9.89121C21.6695 9.79972 21.1205 9.79972 20.5716 9.9827C20.1141 10.0742 19.6566 10.3487 19.1992 10.8061ZM12.4286 15.5638C12.8861 15.5638 13.4351 15.5638 13.8925 15.3808C14.35 15.1978 14.8075 14.9234 15.082 14.5574C15.4479 14.1914 15.7224 13.8254 15.9054 13.368C16.0884 12.9105 16.0884 12.453 16.0884 11.9041C15.9969 11.3551 16.0884 10.7147 16.2714 10.1657C16.4544 9.61673 16.8203 9.15926 17.1863 8.70179C17.5523 8.33582 18.1012 7.96985 18.6502 7.78686C19.1992 7.60387 19.7481 7.51238 20.3886 7.60387C21.1205 7.69537 21.761 7.51238 22.4014 7.1464C23.0419 6.78043 23.4994 6.32296 23.7738 5.68251C24.0434 5.04809 24.1381 4.35308 24.0483 3.66965C23.9568 3.0292 23.5909 2.38874 23.1334 1.83978C22.6759 1.38231 22.0355 1.01634 21.3035 0.924846C20.6201 0.835024 19.9251 0.929798 19.2907 1.19933C18.6502 1.47381 18.1012 1.93128 17.8268 2.57173C17.4608 3.21218 17.3693 3.85264 17.3693 4.58459C17.4608 5.13355 17.3693 5.774 17.1863 6.32296C17.0033 6.87192 16.6373 7.32939 16.2714 7.78686C15.9054 8.15283 15.3564 8.51881 14.8075 8.70179C14.2585 8.88478 13.7096 8.97628 13.0691 8.88478C12.6116 8.79329 12.0627 8.88478 11.6052 9.06777C11.1477 9.25076 10.6903 9.52524 10.4158 9.89121C10.0498 10.2572 9.77533 10.6232 9.59234 11.0806C9.40936 11.5381 9.40936 11.9956 9.40936 12.5445C9.50085 13.0935 9.40936 13.7339 9.22637 14.2829C9.04338 14.8319 8.67741 15.2893 8.31144 15.7468C7.94546 16.1128 7.3965 16.4787 6.84754 16.6617C6.29858 16.7532 5.65812 16.8447 5.10916 16.8447C4.37721 16.7532 3.73676 16.9362 3.09631 17.3022C2.45585 17.6682 1.99838 18.1256 1.7239 18.7661C1.45437 19.4005 1.3596 20.0955 1.44942 20.7789C1.54092 21.4194 1.90689 22.0598 2.36436 22.6088C2.82183 23.0663 3.46228 23.4323 4.19423 23.5237C4.87765 23.6136 5.57266 23.5188 6.20708 23.2493C6.84754 22.9748 7.3965 22.5173 7.67098 21.8769C8.03695 21.2364 8.12845 20.596 8.12845 19.864C8.03695 19.315 8.12845 18.6746 8.31144 18.1256C8.49442 17.5767 8.8604 17.1192 9.22637 16.6617C9.59234 16.2958 10.1413 15.9298 10.6903 15.7468L12.4286 15.5638ZM6.29858 13.7339C6.66455 13.368 6.93903 13.002 7.03053 12.5445C7.12202 12.0871 7.21351 11.6296 7.21351 11.0806C7.12202 10.5317 7.21351 9.89121 7.3965 9.34225C7.57949 8.79329 7.94546 8.33582 8.31144 7.87835C8.67741 7.51238 9.22637 7.1464 9.77533 6.96342C10.3243 6.78043 10.8733 6.68894 11.5137 6.78043C12.2457 6.87192 12.8861 6.68894 13.5266 6.32296C14.167 5.95699 14.6245 5.49952 14.899 4.85907C15.1685 4.22464 15.2633 3.52963 15.1734 2.84621C15.082 2.20576 14.716 1.5653 14.2585 1.01634C13.801 0.558872 13.1606 0.192898 12.4286 0.101405C11.7452 0.0115819 11.0502 0.106356 10.4158 0.375885C9.77533 0.650366 9.22637 1.10783 8.95189 1.74829C8.58592 2.38874 8.49442 3.0292 8.49442 3.76114C8.58592 4.31011 8.49442 4.95056 8.31144 5.49952C8.12845 6.04848 7.76247 6.50595 7.3965 6.96342C7.03053 7.32939 6.48156 7.69537 5.9326 7.87835C5.38364 8.06134 4.83468 8.15283 4.19423 8.06134C3.64527 7.96985 3.09631 8.06134 2.54734 8.33582C1.99838 8.51881 1.54092 8.88478 1.26644 9.34225C0.900462 9.79972 0.717475 10.3487 0.625981 10.8976C0.534488 11.4466 0.625981 11.9956 0.808968 12.5445C0.991955 13.0935 1.35793 13.551 1.7239 13.9169C2.18137 14.2829 2.63884 14.5574 3.1878 14.6489C3.73676 14.7404 4.28572 14.7404 4.83468 14.5574C5.47514 14.4659 5.9326 14.1914 6.29858 13.7339ZM34.6616 4.67608H37.4064V17.9426H34.6616V4.67608ZM38.9618 13.368C38.9618 12.453 39.2362 11.4466 39.7852 10.7147C40.3342 9.89121 41.0661 9.34225 41.981 8.97627C42.896 8.6103 43.8109 8.51881 44.7259 8.70179C45.6408 8.88478 46.5557 9.34225 47.1962 9.9827C47.8366 10.6232 48.2941 11.5381 48.4771 12.453C48.6601 13.368 48.5686 14.3744 48.2026 15.1978C47.8366 16.1128 47.1962 16.8447 46.4642 17.3937C45.6812 17.9255 44.7575 18.2122 43.8109 18.2171C43.1705 18.2171 42.53 18.1256 41.981 17.8511C41.4321 17.5767 40.8831 17.3022 40.4257 16.8447C39.9682 16.3873 39.6022 15.8383 39.4192 15.2893C39.1148 14.6948 38.9579 14.0358 38.9618 13.368ZM45.8238 13.368C45.8238 13.002 45.6408 12.5445 45.4578 12.27C45.1833 11.9041 44.9088 11.7211 44.5429 11.5381C44.1769 11.3551 43.7194 11.3551 43.3534 11.4466C42.9875 11.5381 42.6215 11.7211 42.347 11.9956C42.0725 12.27 41.8896 12.636 41.7981 13.0935C41.7066 13.4595 41.7981 13.9169 41.8896 14.2829C42.0725 14.6489 42.347 15.0148 42.6215 15.1978C42.9875 15.3808 43.3534 15.5638 43.8109 15.5638C44.0854 15.5638 44.3599 15.5638 44.6344 15.3808C44.9088 15.2893 45.0918 15.1063 45.3663 14.9234C45.5493 14.7404 45.7323 14.4659 45.8238 14.1914V13.368ZM59.3648 8.79329V17.3937C59.3648 20.413 56.986 21.6939 54.6072 21.6939C53.7837 21.7854 52.8688 21.6024 52.1368 21.2364C51.4049 20.8704 50.7644 20.23 50.307 19.498L52.5943 18.1256C52.7773 18.4916 53.0518 18.8576 53.4177 19.0406C53.7894 19.2179 54.1954 19.3116 54.6072 19.315C54.8816 19.315 55.1561 19.315 55.4306 19.2235C55.7051 19.1321 55.8881 19.0406 56.1625 18.8576C56.3446 18.6669 56.4986 18.4512 56.62 18.2171C56.7115 17.9426 56.7115 17.6682 56.7115 17.3937V16.5702C56.3998 16.9719 55.9903 17.2869 55.5221 17.4852C55.0646 17.6682 54.6072 17.7597 54.0582 17.7597C52.8688 17.7597 51.7709 17.2107 50.8559 16.3873C50.0325 15.5638 49.575 14.3744 49.575 13.185C49.575 11.9956 50.0325 10.8061 50.8559 9.9827C51.6794 9.15926 52.7773 8.6103 54.0582 8.6103C54.5587 8.61265 55.0547 8.70564 55.5221 8.88478C55.9796 9.06777 56.3455 9.43374 56.7115 9.79972V8.88478L59.3648 8.79329ZM56.7115 13.185C56.7115 12.7275 56.62 12.27 56.3455 11.9041C56.071 11.5381 55.7966 11.2636 55.3391 11.0806C54.9439 10.8803 54.4937 10.816 54.0582 10.8976C53.6007 10.9891 53.2347 11.1721 52.8688 11.4466C52.5943 11.7211 52.3198 12.1785 52.2283 12.5445C52.1368 13.002 52.1368 13.4595 52.3198 13.8254C52.5028 14.1914 52.7773 14.5574 53.1433 14.8319C53.5092 15.1063 53.9667 15.1978 54.3327 15.1978C54.6072 15.1978 54.8816 15.1978 55.1561 15.1063C55.4306 15.0148 55.7051 14.8319 55.8881 14.6489C56.071 14.4659 56.254 14.1914 56.3455 13.9169C56.7115 13.7339 56.7115 13.4595 56.7115 13.185ZM60.9202 13.368C60.9202 12.453 61.1947 11.4466 61.7436 10.7147C62.2926 9.89121 63.0246 9.34225 63.9395 8.97627C64.8544 8.6103 65.7694 8.51881 66.6843 8.70179C67.5992 8.88478 68.5142 9.34225 69.1546 9.9827C69.7951 10.6232 70.2525 11.5381 70.4355 12.453C70.6185 13.368 70.527 14.3744 70.161 15.1978C69.7951 16.1128 69.1546 16.8447 68.4227 17.3937C67.6396 17.9255 66.7159 18.2122 65.7694 18.2171C65.1289 18.2171 64.4885 18.1256 63.9395 17.8511C63.3905 17.5767 62.8416 17.3022 62.3841 16.8447C61.9266 16.3873 61.5607 15.8383 61.3777 15.2893C61.0733 14.6948 60.9164 14.0358 60.9202 13.368ZM67.7822 13.368C67.7822 13.002 67.5992 12.5445 67.4162 12.27C67.1418 11.9041 66.8673 11.7211 66.5013 11.5381C66.1353 11.3551 65.6779 11.3551 65.3119 11.4466C64.9459 11.5381 64.5799 11.7211 64.214 11.9956C63.9395 12.27 63.7565 12.636 63.665 13.0935C63.5735 13.4595 63.665 13.9169 63.7565 14.2829C63.848 14.6489 64.214 15.0148 64.4884 15.1978C64.8544 15.3808 65.2204 15.5638 65.6779 15.5638C65.9523 15.5638 66.2268 15.5638 66.5013 15.3808C66.7758 15.2893 66.9588 15.1063 67.2333 14.9234C67.4162 14.7404 67.5992 14.4659 67.6907 14.1914C67.7822 13.9169 67.7822 13.6424 67.7822 13.368ZM71.8079 6.41446C71.8006 6.08815 71.8966 5.76789 72.0824 5.49952C72.2654 5.22504 72.5399 5.04205 72.8144 4.85907C73.0888 4.76757 73.4548 4.67608 73.7293 4.76757C74.0038 4.85907 74.3698 4.95056 74.5527 5.22504C74.7357 5.40803 74.9187 5.774 75.0102 6.04848C75.1017 6.32296 75.0102 6.68894 74.9187 6.96342C74.8272 7.2379 74.5527 7.51238 74.2783 7.69537C74.0099 7.88113 73.6896 7.97721 73.3633 7.96985C72.9059 7.96985 72.5399 7.78686 72.1739 7.51238C71.9909 7.2379 71.8079 6.78043 71.8079 6.41446ZM72.0824 8.79329H74.8272V17.8511H72.0824V8.79329ZM86.5384 13.368C86.5384 14.0084 86.4469 14.5574 86.2639 15.1063C86.0809 15.6553 85.7149 16.2043 85.349 16.6617C84.983 17.1192 84.434 17.4852 83.8851 17.7597C83.3361 18.0341 82.7871 18.1256 82.1467 18.2171C81.5977 18.2171 81.1403 18.1256 80.6828 17.9426C80.2253 17.7597 79.7679 17.4852 79.4934 17.1192V21.6024H76.7486V8.79329H79.4934V9.61673C79.8594 9.25076 80.2253 8.97628 80.6828 8.79329C81.1502 8.61415 81.6462 8.52115 82.1467 8.51881C82.7871 8.51881 83.3361 8.70179 83.8851 8.97627C84.434 9.25076 84.8915 9.61673 85.349 10.0742C85.7149 10.5317 86.0809 11.0806 86.2639 11.6296C86.4469 12.1785 86.5384 12.7275 86.5384 13.368ZM83.7936 13.368C83.7936 12.9105 83.6106 12.5445 83.4276 12.1785C83.1531 11.8126 82.8786 11.5381 82.4212 11.4466C82.0552 11.2636 81.5977 11.2636 81.1403 11.3551C80.6828 11.4466 80.3168 11.6296 80.0423 11.9956C79.7679 12.27 79.5849 12.7275 79.4934 13.0935C79.4019 13.551 79.4934 13.9169 79.5849 14.3744C79.7679 14.7404 80.0424 15.1063 80.4083 15.2893C80.7743 15.5638 81.1403 15.6553 81.5977 15.6553C81.8722 15.6553 82.1467 15.6553 82.4212 15.4723C82.6957 15.3808 82.9701 15.1978 83.1531 15.0148C83.3361 14.8319 83.5191 14.5574 83.6106 14.2829C83.7936 13.9169 83.7936 13.6424 83.7936 13.368ZM94.8643 15.1063C94.8643 17.2107 93.0344 18.0341 91.1131 18.0341C90.2896 18.1256 89.5577 17.9426 88.8257 17.5767C88.0938 17.2107 87.5448 16.5702 87.1788 15.9298L89.5577 14.5574C89.6492 14.9234 89.8322 15.1978 90.1066 15.3808C90.3806 15.5546 90.6972 15.6496 91.0216 15.6553C91.662 15.6553 92.028 15.4723 92.028 15.1063C92.028 14.0999 87.5448 14.6489 87.5448 11.5381C87.5448 9.52524 89.1917 8.6103 91.1131 8.6103C91.845 8.6103 92.4855 8.79329 93.1259 9.06777C93.7415 9.40876 94.2488 9.91604 94.5898 10.5317L92.3025 11.8126C92.211 11.5381 92.028 11.3551 91.845 11.2636C91.662 11.1721 91.3875 11.0806 91.1131 11.0806C90.6556 11.0806 90.3811 11.2636 90.3811 11.6296C90.4726 12.453 94.8643 11.8126 94.8643 15.1063ZM104.837 8.79329V17.8511H102.092V17.0277C101.818 17.3937 101.36 17.6682 100.903 17.8511C100.445 18.0341 99.9879 18.1256 99.439 18.1256C97.6091 18.1256 96.0537 16.8447 96.0537 14.3744V8.79329H98.7985V13.9169C98.7985 14.0999 98.7985 14.3744 98.89 14.5574C98.9815 14.7404 99.073 14.9234 99.256 15.1063C99.439 15.2893 99.622 15.3808 99.8049 15.4723C99.9879 15.5638 100.262 15.5638 100.445 15.5638C101.452 15.5638 102.092 15.0148 102.092 13.7339V8.79329H104.837ZM120.391 12.27V17.8511H117.646V12.5445C117.646 11.6296 117.189 11.0806 116.365 11.0806C115.45 11.0806 114.993 11.7211 114.993 12.819V17.9426H112.248V12.636C112.248 11.7211 111.791 11.1721 110.967 11.1721C110.052 11.1721 109.595 11.8126 109.595 12.9105V18.0341H106.85V8.97627H109.595V9.79972C109.877 9.42811 110.257 9.14286 110.693 8.97627C111.15 8.79329 111.608 8.70179 112.065 8.70179C112.523 8.70179 112.98 8.79329 113.437 8.97627C113.895 9.15926 114.169 9.52524 114.444 9.89121C114.756 9.48956 115.165 9.17455 115.633 8.97627C116.101 8.79714 116.597 8.70414 117.097 8.70179C119.019 8.51881 120.391 10.0742 120.391 12.27ZM122.678 8.70179C123.211 8.69702 123.72 8.48342 124.096 8.10696C124.473 7.73051 124.686 7.2213 124.691 6.68894C124.686 6.15657 124.473 5.64736 124.096 5.27091C123.72 4.89446 123.211 4.68085 122.678 4.67608C122.146 4.68085 121.637 4.89446 121.26 5.27091C120.884 5.64736 120.67 6.15657 120.665 6.68894C120.665 7.87835 121.58 8.70179 122.678 8.70179Z" fill="#B4B7C9"/>
</svg>
