<svg width="106" height="25" viewBox="0 0 106 25" fill="none" xmlns="http://www.w3.org/2000/svg">
<path d="M0.922241 23.9813H24.3446V0.55896H0.922241V23.9813ZM19.9529 9.98279H15.0122V5.04214H19.9529V9.98279ZM5.49692 5.04214H10.4376V14.5575H19.9529V19.4981H5.49692V5.04214ZM39.7155 0.55896C37.4282 0.55896 35.1408 1.29091 33.2195 2.57182C31.2981 3.85273 29.7427 5.6826 28.9193 7.87844C28.0043 9.98279 27.8213 12.3616 28.2788 14.649C28.7363 16.9363 29.8342 19.0406 31.4811 20.6875C33.128 22.3344 35.2323 23.4323 37.5196 23.8898C39.807 24.3473 42.1858 24.0728 44.2902 23.2493C46.4173 22.3255 48.2521 20.8387 49.5968 18.9492C50.8777 17.0278 51.6096 14.7405 51.6096 12.4531C51.6096 9.34234 50.3287 6.32305 48.1329 4.12721C45.8456 1.74838 42.8263 0.55896 39.7155 0.55896ZM39.7155 19.4981C38.2516 19.4981 36.8792 19.0406 35.6898 18.3087C34.5004 17.4853 33.5854 16.3873 33.0365 15.1064C32.4875 13.8255 32.3045 12.3616 32.6705 10.8977C32.945 9.52532 33.6769 8.24441 34.6833 7.23799C35.6898 6.23156 36.9707 5.49961 38.3431 5.22513C39.7155 4.95065 41.1794 5.13364 42.5518 5.5911C43.8327 6.14006 45.0221 7.055 45.7541 8.24441C46.5775 9.43383 46.9435 10.8062 46.9435 12.2701C46.9435 14.1915 46.2115 16.0214 44.8391 17.3938C43.4667 18.7662 41.6369 19.4981 39.7155 19.4981ZM93.4222 0.55896C91.1348 0.55896 88.8475 1.29091 86.9261 2.57182C85.0048 3.85273 83.4494 5.6826 82.6259 7.87844C81.711 9.98279 81.528 12.3616 81.9855 14.649C82.443 16.9363 83.5409 19.0406 85.1878 20.6875C86.8346 22.3344 88.939 23.4323 91.2263 23.8898C93.5137 24.3473 95.8925 24.0728 97.9968 23.2493C100.124 22.3255 101.959 20.8387 103.303 18.9492C104.584 17.0278 105.316 14.7405 105.316 12.4531C105.316 9.34234 104.035 6.32305 101.84 4.12721C99.5522 1.74838 96.533 0.55896 93.4222 0.55896ZM93.4222 19.4981C91.9583 19.4981 90.5859 19.0406 89.3965 18.3087C88.207 17.4853 87.2921 16.3873 86.7431 15.1064C86.1942 13.8255 86.0112 12.3616 86.3772 10.8977C86.6517 9.52532 87.3836 8.24441 88.39 7.23799C89.3965 6.23156 90.6774 5.49961 92.0498 5.22513C93.4222 4.95065 94.8861 5.13364 96.2585 5.5911C97.5394 6.14006 98.7288 7.055 99.4607 8.24441C100.284 9.43383 100.65 10.8062 100.65 12.2701C100.65 14.1915 99.9182 16.0214 98.5458 17.3938C97.1734 18.7662 95.3435 19.4981 93.4222 19.4981ZM66.6146 0.55896C64.3272 0.55896 62.0399 1.29091 60.1185 2.57182C58.1972 3.85273 56.6418 5.6826 55.8183 7.87844C54.9034 9.98279 54.7204 12.3616 55.1779 14.649C55.6354 16.9363 56.7333 19.0406 58.3802 20.6875C60.027 22.3344 62.1314 23.4323 64.4187 23.8898C66.7061 24.3473 69.0849 24.0728 71.1892 23.2493C73.3164 22.3255 75.1512 20.8387 76.4959 18.9492C77.7768 17.0278 78.5087 14.7405 78.5087 12.4531C78.5087 9.34234 77.2278 6.32305 75.032 4.12721C72.6532 1.74838 69.7253 0.55896 66.6146 0.55896ZM66.6146 19.4981C65.2422 19.4981 63.9613 19.1321 62.8633 18.4002C61.7654 17.6682 60.8505 16.7533 60.21 15.5639C59.5696 14.3745 59.2951 13.0936 59.4781 11.7212C59.5696 10.4403 60.027 9.15935 60.8505 8.06143C61.6739 6.96351 62.6804 6.14006 63.9613 5.5911C65.1507 5.04214 66.5231 4.95065 67.804 5.13364C69.0849 5.31662 70.3658 5.86558 71.3722 6.78052C72.3787 7.60396 73.1106 8.79338 73.5681 9.98279H66.7061V14.466H73.5681C73.1106 15.9299 72.1957 17.1193 70.9148 18.0342C69.5424 19.0406 68.0785 19.4981 66.6146 19.4981Z" fill="#B4B7C9"/>
</svg>
